<?xml version="1.0" standalone="no"?>
<!DOCTYPE svg PUBLIC "-//W3C//DTD SVG 20010904//EN"
 "http://www.w3.org/TR/2001/REC-SVG-20010904/DTD/svg10.dtd">
<svg version="1.0" xmlns="http://www.w3.org/2000/svg"
 width="500.000000pt" height="397.000000pt" viewBox="0 0 500.000000 397.000000"
 preserveAspectRatio="xMidYMid meet">

<g transform="translate(0.000000,397.000000) scale(0.100000,-0.100000)"
fill="#000" stroke="none">
<path d="M100 3793 c0 -34 5 -85 11 -112 12 -55 4 -51 122 -66 26 -4 76 -21
110 -38 72 -38 108 -84 134 -172 16 -56 18 -154 21 -1360 3 -1356 2 -1401 -39
-1512 -36 -93 -128 -149 -281 -168 -66 -8 -66 -8 -75 -140 l-6 -90 663 0 663
0 -6 90 c-9 132 -9 132 -75 140 -168 21 -253 79 -293 200 -24 70 -24 71 -27
697 l-3 626 53 7 c105 12 712 25 1161 25 l458 0 -3 -632 c-4 -565 -6 -639 -21
-693 -40 -138 -107 -194 -264 -222 -48 -9 -91 -21 -95 -27 -4 -6 -10 -36 -13
-66 -3 -30 -8 -75 -10 -100 l-5 -45 666 0 667 0 -7 80 c-11 140 -8 136 -111
157 -113 22 -140 33 -192 81 -57 53 -81 130 -94 302 -6 80 -9 604 -6 1345 3
1098 5 1221 20 1278 23 86 50 135 94 171 42 35 145 71 202 71 21 0 45 6 54 13
17 13 37 110 37 182 l0 40 -665 0 -664 0 5 -75 c3 -41 10 -92 15 -112 8 -32
14 -38 44 -43 19 -3 52 -8 72 -11 115 -18 198 -79 232 -170 35 -93 41 -200 41
-751 l0 -533 -835 0 -836 0 3 593 c4 649 5 663 66 752 32 48 129 101 200 110
117 15 109 11 121 66 6 27 11 78 11 112 l0 62 -660 0 -660 0 0 -62z"/>
<path d="M4466 794 c-110 -26 -205 -106 -254 -213 -23 -47 -27 -70 -27 -146 0
-82 3 -97 33 -157 60 -121 156 -179 309 -186 179 -8 305 57 373 193 33 65 35
76 35 165 0 81 -4 103 -26 150 -29 62 -103 142 -158 169 -80 41 -183 50 -285
25z"/>
</g>
</svg>
