<svg xmlns="http://www.w3.org/2000/svg" xmlns:xlink="http://www.w3.org/1999/xlink" width="500" zoomAndPan="magnify" viewBox="0 0 375 374.999991" height="500" preserveAspectRatio="xMidYMid meet" version="1.0"><defs><g/></defs><g fill="#ffffff" fill-opacity="1"><g transform="translate(88.074172, 265.59168)"><g><path d="M -10.859375 -25.4375 C -8.859375 -21.070312 -8.128906 -16.679688 -8.671875 -12.265625 C -9.210938 -7.847656 -10.941406 -3.8125 -13.859375 -0.15625 C -16.773438 3.5 -20.675781 6.445312 -25.5625 8.6875 C -30.78125 11.070312 -35.722656 11.992188 -40.390625 11.453125 C -45.066406 10.921875 -49.15625 9.257812 -52.65625 6.46875 C -56.164062 3.675781 -58.878906 0.191406 -60.796875 -3.984375 C -62.117188 -6.878906 -63.046875 -9.695312 -63.578125 -12.4375 C -64.117188 -15.175781 -64.367188 -18.191406 -64.328125 -21.484375 C -61.597656 -22.085938 -57.789062 -23.503906 -52.90625 -25.734375 C -52.007812 -24.890625 -51.222656 -23.734375 -50.546875 -22.265625 C -55.210938 -19.910156 -58.035156 -17.441406 -59.015625 -14.859375 C -59.992188 -12.285156 -59.695312 -9.289062 -58.125 -5.875 C -56.375 -2.03125 -54.019531 0.734375 -51.0625 2.421875 C -48.101562 4.109375 -44.882812 4.875 -41.40625 4.71875 C -37.925781 4.5625 -34.425781 3.679688 -30.90625 2.078125 C -26.632812 0.117188 -23.109375 -2.367188 -20.328125 -5.390625 C -17.546875 -8.410156 -15.796875 -11.742188 -15.078125 -15.390625 C -14.367188 -19.035156 -14.863281 -22.710938 -16.5625 -26.421875 C -17.582031 -28.648438 -19.015625 -30.78125 -20.859375 -32.8125 C -22.703125 -34.84375 -24.734375 -36.585938 -26.953125 -38.046875 C -26.847656 -38.441406 -26.628906 -38.875 -26.296875 -39.34375 C -25.960938 -39.8125 -25.644531 -40.140625 -25.34375 -40.328125 C -21.769531 -38.453125 -18.863281 -36.378906 -16.625 -34.109375 C -14.382812 -31.835938 -12.460938 -28.945312 -10.859375 -25.4375 Z M -10.859375 -25.4375 "/></g></g></g><g fill="#ffffff" fill-opacity="1"><g transform="translate(69.844216, 222.986886)"><g><path d="M -0.265625 -2.8125 C -1.648438 -2.5625 -2.78125 -2.488281 -3.65625 -2.59375 C -4.03125 -4.644531 -4.757812 -5.957031 -5.84375 -6.53125 C -6.9375 -7.101562 -8.765625 -7.15625 -11.328125 -6.6875 L -45.84375 -0.421875 C -47.175781 -0.179688 -48.203125 0.132812 -48.921875 0.53125 C -49.648438 0.925781 -50.128906 1.566406 -50.359375 2.453125 C -50.597656 3.347656 -50.5625 4.648438 -50.25 6.359375 C -51.425781 6.566406 -52.421875 6.507812 -53.234375 6.1875 C -53.472656 4.894531 -54.085938 3.117188 -55.078125 0.859375 C -56.066406 -1.398438 -56.945312 -2.914062 -57.71875 -3.6875 C -57.570312 -4.875 -56.644531 -5.625 -54.9375 -5.9375 L -12.578125 -13.625 C -10.015625 -14.09375 -8.316406 -14.742188 -7.484375 -15.578125 C -6.648438 -16.421875 -6.390625 -17.691406 -6.703125 -19.390625 C -5.878906 -19.804688 -4.800781 -20.140625 -3.46875 -20.390625 C -3.132812 -17.679688 -2.679688 -14.765625 -2.109375 -11.640625 C -1.503906 -8.296875 -0.890625 -5.351562 -0.265625 -2.8125 Z M -0.265625 -2.8125 "/></g></g></g><g fill="#ffffff" fill-opacity="1"><g transform="translate(65.953857, 202.925003)"><g><path d="M -45.65625 -10.5625 C -45.625 -9.25 -46.039062 -8.140625 -46.90625 -7.234375 C -47.78125 -6.328125 -48.84375 -5.859375 -50.09375 -5.828125 C -51.445312 -5.796875 -52.59375 -6.222656 -53.53125 -7.109375 C -54.46875 -8.003906 -54.953125 -9.082031 -54.984375 -10.34375 C -55.015625 -11.75 -54.59375 -12.890625 -53.71875 -13.765625 C -52.851562 -14.648438 -51.71875 -15.109375 -50.3125 -15.140625 C -49.113281 -15.171875 -48.046875 -14.738281 -47.109375 -13.84375 C -46.171875 -12.957031 -45.6875 -11.863281 -45.65625 -10.5625 Z M 0.171875 -2.890625 C -1.234375 -2.859375 -2.359375 -2.960938 -3.203125 -3.203125 C -3.242188 -5.296875 -3.757812 -6.707031 -4.75 -7.4375 C -5.738281 -8.175781 -7.535156 -8.519531 -10.140625 -8.46875 L -25.65625 -8.109375 C -27.007812 -8.078125 -28.070312 -7.921875 -28.84375 -7.640625 C -29.625 -7.367188 -30.195312 -6.8125 -30.5625 -5.96875 C -30.925781 -5.125 -31.085938 -3.835938 -31.046875 -2.109375 C -32.253906 -2.078125 -33.226562 -2.289062 -33.96875 -2.75 C -34 -4.0625 -34.328125 -5.910156 -34.953125 -8.296875 C -35.578125 -10.679688 -36.210938 -12.3125 -36.859375 -13.1875 C -36.523438 -14.34375 -35.5 -14.9375 -33.78125 -14.96875 L -10.296875 -15.515625 C -7.691406 -15.566406 -5.910156 -15.941406 -4.953125 -16.640625 C -4.003906 -17.335938 -3.550781 -18.550781 -3.59375 -20.28125 C -2.707031 -20.5625 -1.585938 -20.71875 -0.234375 -20.75 C -0.328125 -18.03125 -0.335938 -15.082031 -0.265625 -11.90625 C -0.191406 -8.507812 -0.046875 -5.503906 0.171875 -2.890625 Z M 0.171875 -2.890625 "/></g></g></g><g fill="#ffffff" fill-opacity="1"><g transform="translate(64.583473, 182.999643)"><g><path d="M 4.03125 -19 C 3.550781 -16.269531 2.40625 -13.804688 0.59375 -11.609375 C -1.21875 -9.421875 -3.632812 -7.789062 -6.65625 -6.71875 C -9.6875 -5.65625 -13.125 -5.460938 -16.96875 -6.140625 C -20.15625 -6.691406 -23.050781 -7.84375 -25.65625 -9.59375 C -28.257812 -11.351562 -30.222656 -13.59375 -31.546875 -16.3125 C -32.878906 -19.039062 -33.253906 -22.078125 -32.671875 -25.421875 C -31.828125 -30.253906 -29.992188 -33.929688 -27.171875 -36.453125 C -24.921875 -35.691406 -22.019531 -35.003906 -18.46875 -34.390625 C -18.195312 -33.546875 -18.203125 -32.328125 -18.484375 -30.734375 C -21.460938 -30.941406 -23.890625 -30.460938 -25.765625 -29.296875 C -27.640625 -28.140625 -28.773438 -26.429688 -29.171875 -24.171875 C -29.617188 -21.597656 -28.773438 -19.367188 -26.640625 -17.484375 C -24.503906 -15.597656 -21.25 -14.273438 -16.875 -13.515625 C -14.25 -13.054688 -11.710938 -13.066406 -9.265625 -13.546875 C -6.828125 -14.023438 -4.769531 -14.960938 -3.09375 -16.359375 C -1.425781 -17.765625 -0.390625 -19.617188 0.015625 -21.921875 C 0.304688 -23.566406 0.195312 -25.191406 -0.3125 -26.796875 C -0.832031 -28.398438 -1.710938 -29.890625 -2.953125 -31.265625 C -2.671875 -31.640625 -2.304688 -31.972656 -1.859375 -32.265625 C -1.410156 -32.554688 -0.945312 -32.742188 -0.46875 -32.828125 C 3.507812 -29.210938 5.007812 -24.601562 4.03125 -19 Z M 4.03125 -19 "/></g></g></g><g fill="#ffffff" fill-opacity="1"><g transform="translate(68.7014, 152.942588)"><g><path d="M 6.28125 -33.421875 C 8.632812 -34.046875 10.304688 -34.6875 11.296875 -35.34375 C 12.296875 -36.007812 13.257812 -37.140625 14.1875 -38.734375 C 15.550781 -38.097656 16.507812 -37.507812 17.0625 -36.96875 C 15.507812 -33.601562 14.320312 -30.46875 13.5 -27.5625 C 10.59375 -27.125 6.9375 -26.335938 2.53125 -25.203125 C -1.863281 -24.078125 -5.847656 -22.875 -9.421875 -21.59375 L -2.453125 -18.390625 C -0.0859375 -17.296875 1.671875 -16.851562 2.828125 -17.0625 C 3.984375 -17.269531 4.925781 -18.15625 5.65625 -19.71875 C 6.570312 -19.582031 7.644531 -19.234375 8.875 -18.671875 C 7.59375 -16.265625 6.285156 -13.617188 4.953125 -10.734375 C 3.535156 -7.648438 2.347656 -4.890625 1.390625 -2.453125 C 0.109375 -3.035156 -0.851562 -3.625 -1.5 -4.21875 C -0.625 -6.125 -0.460938 -7.617188 -1.015625 -8.703125 C -1.578125 -9.796875 -3.039062 -10.890625 -5.40625 -11.984375 L -37.265625 -26.671875 C -38.503906 -27.242188 -39.53125 -27.578125 -40.34375 -27.671875 C -41.164062 -27.765625 -41.925781 -27.515625 -42.625 -26.921875 C -43.332031 -26.335938 -44.050781 -25.257812 -44.78125 -23.6875 C -45.863281 -24.1875 -46.644531 -24.804688 -47.125 -25.546875 C -46.570312 -26.734375 -46.050781 -28.535156 -45.5625 -30.953125 C -45.082031 -33.378906 -44.9375 -35.125 -45.125 -36.1875 C -44.3125 -37.070312 -43.125 -37.15625 -41.5625 -36.4375 L -11.640625 -22.625 L -13.984375 -30.09375 C -15.273438 -34.363281 -16.460938 -36.75 -17.546875 -37.25 C -18.316406 -37.601562 -19.019531 -37.085938 -19.65625 -35.703125 C -20.726562 -35.859375 -21.765625 -36.164062 -22.765625 -36.625 C -21.722656 -38.625 -20.535156 -41.066406 -19.203125 -43.953125 C -17.929688 -46.703125 -16.953125 -48.957031 -16.265625 -50.71875 C -15.078125 -50.175781 -14.160156 -49.546875 -13.515625 -48.828125 C -14.128906 -47.390625 -14.410156 -45.867188 -14.359375 -44.265625 C -14.316406 -42.660156 -13.921875 -40.625 -13.171875 -38.15625 L -10.171875 -28.578125 C -5.941406 -30.023438 -0.457031 -31.640625 6.28125 -33.421875 Z M 6.28125 -33.421875 "/></g></g></g><g fill="#ffffff" fill-opacity="1"><g transform="translate(85.862287, 118.037343)"><g/></g></g><g fill="#ffffff" fill-opacity="1"><g transform="translate(88.719795, 106.445085)"><g><path d="M 50.296875 -42.953125 C 50.984375 -42.503906 51.773438 -41.703125 52.671875 -40.546875 C 50.722656 -39.234375 48.425781 -37.550781 45.78125 -35.5 C 42.9375 -33.289062 40.53125 -31.328125 38.5625 -29.609375 C 37.632812 -30.804688 37.050781 -31.769531 36.8125 -32.5 C 38.394531 -33.863281 39.207031 -35.140625 39.25 -36.328125 C 39.289062 -37.515625 38.515625 -39.140625 36.921875 -41.203125 L 29.625 -50.609375 C 27.476562 -53.367188 25.46875 -54.929688 23.59375 -55.296875 C 21.726562 -55.671875 19.890625 -55.15625 18.078125 -53.75 C 16.921875 -52.84375 16.097656 -51.640625 15.609375 -50.140625 C 15.117188 -48.640625 15.140625 -46.835938 15.671875 -44.734375 C 16.210938 -42.640625 17.390625 -40.421875 19.203125 -38.078125 L 24.34375 -31.453125 C 25.9375 -29.390625 27.320312 -28.238281 28.5 -28 C 29.6875 -27.757812 31.132812 -28.234375 32.84375 -29.421875 C 33.53125 -28.972656 34.320312 -28.171875 35.21875 -27.015625 C 33.03125 -25.515625 30.53125 -23.675781 27.71875 -21.5 C 25.039062 -19.414062 22.632812 -17.445312 20.5 -15.59375 C 19.570312 -16.789062 18.988281 -17.757812 18.75 -18.5 C 20.332031 -19.851562 21.140625 -21.125 21.171875 -22.3125 C 21.210938 -23.5 20.4375 -25.125 18.84375 -27.1875 L 11.3125 -36.90625 C 9.164062 -39.664062 7.160156 -41.226562 5.296875 -41.59375 C 3.429688 -41.957031 1.585938 -41.4375 -0.234375 -40.03125 C -1.378906 -39.132812 -2.195312 -37.9375 -2.6875 -36.4375 C -3.175781 -34.945312 -3.15625 -33.148438 -2.625 -31.046875 C -2.09375 -28.953125 -0.914062 -26.734375 0.90625 -24.390625 L 6.28125 -17.453125 C 7.84375 -15.429688 9.222656 -14.285156 10.421875 -14.015625 C 11.617188 -13.753906 13.070312 -14.222656 14.78125 -15.421875 C 15.46875 -14.960938 16.257812 -14.15625 17.15625 -13 C 14.957031 -11.5 12.457031 -9.660156 9.65625 -7.484375 C 6.726562 -5.210938 4.316406 -3.242188 2.421875 -1.578125 C 1.492188 -2.773438 0.910156 -3.742188 0.671875 -4.484375 C 2.265625 -5.847656 3.078125 -7.125 3.109375 -8.3125 C 3.140625 -9.5 2.359375 -11.125 0.765625 -13.1875 L -8.734375 -25.4375 C -9.566406 -26.507812 -10.328125 -27.253906 -11.015625 -27.671875 C -11.703125 -28.097656 -12.492188 -28.207031 -13.390625 -28 C -14.296875 -27.800781 -15.425781 -27.207031 -16.78125 -26.21875 C -17.519531 -27.175781 -17.925781 -28.085938 -18 -28.953125 C -16.988281 -29.867188 -15.78125 -31.210938 -14.375 -32.984375 C -12.976562 -34.765625 -12.066406 -36.179688 -11.640625 -37.234375 C -10.503906 -37.660156 -9.410156 -37.191406 -8.359375 -35.828125 C -7.585938 -34.835938 -6.648438 -33.445312 -5.546875 -31.65625 C -5.929688 -33.195312 -6.113281 -34.113281 -6.09375 -34.40625 C -6.195312 -36.175781 -5.816406 -38.117188 -4.953125 -40.234375 C -4.085938 -42.359375 -2.664062 -44.191406 -0.6875 -45.734375 C 1.164062 -47.171875 3.117188 -48.007812 5.171875 -48.25 C 7.234375 -48.5 9.265625 -47.976562 11.265625 -46.6875 C 11.867188 -46.226562 12.347656 -45.773438 12.703125 -45.328125 C 12.390625 -46.328125 12.234375 -47.257812 12.234375 -48.125 C 12.148438 -49.925781 12.53125 -51.875 13.375 -53.96875 C 14.226562 -56.070312 15.640625 -57.890625 17.609375 -59.421875 C 20.171875 -61.410156 22.890625 -62.226562 25.765625 -61.875 C 28.648438 -61.53125 31.453125 -59.609375 34.171875 -56.109375 L 42.421875 -45.46875 C 43.984375 -43.445312 45.332031 -42.28125 46.46875 -41.96875 C 47.601562 -41.65625 48.878906 -41.984375 50.296875 -42.953125 Z M 50.296875 -42.953125 "/></g></g></g><g fill="#ffffff" fill-opacity="1"><g transform="translate(139.226208, 69.421377)"><g><path d="M 27.875 -17.359375 C 28.351562 -17.234375 28.847656 -17.003906 29.359375 -16.671875 C 29.867188 -16.347656 30.210938 -15.992188 30.390625 -15.609375 C 29.378906 -12.878906 27.941406 -10.6875 26.078125 -9.03125 C 24.210938 -7.382812 21.863281 -6.117188 19.03125 -5.234375 C 15.59375 -4.148438 12.445312 -4.023438 9.59375 -4.859375 C 6.738281 -5.691406 4.289062 -7.265625 2.25 -9.578125 C 0.207031 -11.890625 -1.335938 -14.710938 -2.390625 -18.046875 C -3.398438 -21.273438 -3.691406 -24.429688 -3.265625 -27.515625 C -2.835938 -30.609375 -1.707031 -33.332031 0.125 -35.6875 C 1.957031 -38.039062 4.421875 -39.707031 7.515625 -40.6875 C 12.046875 -42.101562 15.859375 -41.753906 18.953125 -39.640625 C 22.054688 -37.523438 24.515625 -34.175781 26.328125 -29.59375 C 26.441406 -28.539062 26.335938 -27.578125 26.015625 -26.703125 C 17.242188 -23.953125 10.3125 -21.640625 5.21875 -19.765625 C 6.664062 -16.015625 8.597656 -13.191406 11.015625 -11.296875 C 13.441406 -9.398438 16.472656 -9.023438 20.109375 -10.171875 C 21.796875 -10.703125 23.316406 -11.585938 24.671875 -12.828125 C 26.035156 -14.078125 27.101562 -15.585938 27.875 -17.359375 Z M 7.953125 -36.890625 C 5.960938 -36.265625 4.535156 -34.882812 3.671875 -32.75 C 2.804688 -30.613281 2.90625 -27.523438 3.96875 -23.484375 L 18.3125 -27.984375 C 17.257812 -31.316406 15.800781 -33.800781 13.9375 -35.4375 C 12.082031 -37.070312 10.085938 -37.554688 7.953125 -36.890625 Z M 7.953125 -36.890625 "/></g></g></g><g fill="#ffffff" fill-opacity="1"><g transform="translate(171.575623, 59.952033)"><g/></g></g><g fill="#ffffff" fill-opacity="1"><g transform="translate(184.383247, 57.718969)"><g><path d="M 26.25 -55.546875 C 28.070312 -55.515625 29.488281 -55.335938 30.5 -55.015625 C 31.507812 -54.691406 32.5625 -54.179688 33.65625 -53.484375 C 33.40625 -50.566406 33.257812 -47.515625 33.21875 -44.328125 C 31.789062 -43.921875 30.296875 -43.734375 28.734375 -43.765625 C 28.765625 -46.015625 28.296875 -47.820312 27.328125 -49.1875 C 26.359375 -50.550781 24.828125 -51.25 22.734375 -51.28125 C 20.703125 -51.3125 19.203125 -50.40625 18.234375 -48.5625 C 17.265625 -46.71875 16.753906 -44 16.703125 -40.40625 L 16.625 -34.84375 L 24.609375 -34.734375 C 24.585938 -33.222656 24.3125 -32.050781 23.78125 -31.21875 C 21.125 -31.25 18.71875 -30.992188 16.5625 -30.453125 L 16.28125 -11.28125 C 16.25 -9.03125 16.457031 -7.316406 16.90625 -6.140625 C 17.363281 -4.960938 18.070312 -4.140625 19.03125 -3.671875 C 20 -3.210938 21.367188 -2.921875 23.140625 -2.796875 C 23.390625 -2.066406 23.503906 -0.945312 23.484375 0.5625 C 21.085938 0.375 17.800781 0.25 13.625 0.1875 C 8.769531 0.125 5.320312 0.15625 3.28125 0.28125 C 3.300781 -1.226562 3.453125 -2.347656 3.734375 -3.078125 C 5.816406 -3.148438 7.238281 -3.640625 8 -4.546875 C 8.769531 -5.453125 9.175781 -7.207031 9.21875 -9.8125 L 9.515625 -30.796875 C 7.492188 -31.242188 5.410156 -31.476562 3.265625 -31.5 C 3.273438 -32.914062 3.660156 -34.085938 4.421875 -35.015625 L 9.578125 -34.953125 L 9.625 -38.078125 C 9.675781 -41.835938 10.488281 -45.035156 12.0625 -47.671875 C 13.644531 -50.316406 15.695312 -52.300781 18.21875 -53.625 C 20.75 -54.945312 23.425781 -55.585938 26.25 -55.546875 Z M 26.25 -55.546875 "/></g></g></g><g fill="#ffffff" fill-opacity="1"><g transform="translate(207.035749, 56.708704)"><g><path d="M 20.046875 5.6875 C 16.597656 4.84375 13.765625 3.347656 11.546875 1.203125 C 9.335938 -0.929688 7.859375 -3.539062 7.109375 -6.625 C 6.367188 -9.71875 6.445312 -13.0625 7.34375 -16.65625 C 8.1875 -20.039062 9.6875 -22.929688 11.84375 -25.328125 C 14 -27.722656 16.570312 -29.382812 19.5625 -30.3125 C 22.5625 -31.238281 25.710938 -31.296875 29.015625 -30.484375 C 34.328125 -29.160156 38.109375 -26.472656 40.359375 -22.421875 C 42.609375 -18.367188 43.054688 -13.609375 41.703125 -8.140625 C 40.847656 -4.691406 39.359375 -1.78125 37.234375 0.59375 C 35.117188 2.96875 32.5625 4.617188 29.5625 5.546875 C 26.5625 6.472656 23.390625 6.519531 20.046875 5.6875 Z M 21.5625 2.203125 C 24.5 2.929688 27.023438 2.265625 29.140625 0.203125 C 31.265625 -1.847656 32.835938 -4.953125 33.859375 -9.109375 C 34.617188 -12.148438 34.820312 -14.953125 34.46875 -17.515625 C 34.113281 -20.078125 33.304688 -22.1875 32.046875 -23.84375 C 30.785156 -25.5 29.21875 -26.5625 27.34375 -27.03125 C 24.507812 -27.726562 22.054688 -27.097656 19.984375 -25.140625 C 17.910156 -23.179688 16.390625 -20.25 15.421875 -16.34375 C 14.171875 -11.28125 14.09375 -7.117188 15.1875 -3.859375 C 16.289062 -0.597656 18.414062 1.421875 21.5625 2.203125 Z M 21.5625 2.203125 "/></g></g></g><g fill="#ffffff" fill-opacity="1"><g transform="translate(242.966633, 65.579894)"><g><path d="M 39.703125 -19.40625 C 41.453125 -18.476562 42.742188 -17.078125 43.578125 -15.203125 C 42.117188 -13.265625 40.5 -10.640625 38.71875 -7.328125 C 37.257812 -7.578125 35.84375 -8.066406 34.46875 -8.796875 C 35.488281 -10.921875 35.910156 -12.519531 35.734375 -13.59375 C 35.566406 -14.664062 34.976562 -15.472656 33.96875 -16.015625 C 33.144531 -16.453125 32.035156 -16.46875 30.640625 -16.0625 C 29.242188 -15.65625 27.820312 -14.859375 26.375 -13.671875 C 24.9375 -12.492188 23.765625 -11.054688 22.859375 -9.359375 L 19.3125 -2.734375 C 18.25 -0.742188 17.644531 0.875 17.5 2.125 C 17.363281 3.382812 17.613281 4.441406 18.25 5.296875 C 18.894531 6.148438 19.972656 7.039062 21.484375 7.96875 C 21.367188 8.726562 20.957031 9.773438 20.25 11.109375 C 18.207031 9.835938 15.347656 8.21875 11.671875 6.25 C 7.390625 3.957031 4.3125 2.394531 2.4375 1.5625 C 3.144531 0.226562 3.785156 -0.691406 4.359375 -1.203125 C 6.253906 -0.304688 7.75 -0.0820312 8.84375 -0.53125 C 9.945312 -0.988281 11.113281 -2.367188 12.34375 -4.671875 L 19.671875 -18.34375 C 20.304688 -19.539062 20.675781 -20.535156 20.78125 -21.328125 C 20.894531 -22.128906 20.675781 -22.898438 20.125 -23.640625 C 19.570312 -24.378906 18.570312 -25.164062 17.125 -26 C 17.6875 -27.0625 18.34375 -27.804688 19.09375 -28.234375 C 20.582031 -27.554688 22.367188 -26.953125 24.453125 -26.421875 C 26.535156 -25.898438 28.257812 -25.632812 29.625 -25.625 C 30.457031 -24.757812 30.421875 -23.476562 29.515625 -21.78125 C 28.671875 -20.207031 27.75 -18.816406 26.75 -17.609375 C 25.75 -16.398438 25.160156 -15.691406 24.984375 -15.484375 C 25.222656 -15.722656 25.703125 -16.175781 26.421875 -16.84375 C 27.140625 -17.519531 27.785156 -18.003906 28.359375 -18.296875 C 32.703125 -20.765625 36.484375 -21.132812 39.703125 -19.40625 Z M 39.703125 -19.40625 "/></g></g></g><g fill="#ffffff" fill-opacity="1"><g transform="translate(268.924552, 79.980701)"><g/></g></g><g fill="#ffffff" fill-opacity="1"><g transform="translate(279.535264, 86.864702)"><g><path d="M 37.859375 2.828125 C 36.710938 2.546875 35.585938 1.8125 34.484375 0.625 C 36.046875 -1.070312 36.90625 -3.097656 37.0625 -5.453125 C 37.21875 -7.804688 36.457031 -9.878906 34.78125 -11.671875 C 33.675781 -12.847656 32.503906 -13.519531 31.265625 -13.6875 C 30.035156 -13.863281 28.941406 -13.503906 27.984375 -12.609375 C 27.265625 -11.929688 26.8125 -11.21875 26.625 -10.46875 C 26.4375 -9.71875 26.519531 -8.613281 26.875 -7.15625 C 27.226562 -5.695312 27.953125 -3.582031 29.046875 -0.8125 C 30.210938 2.007812 30.957031 4.363281 31.28125 6.25 C 31.601562 8.132812 31.53125 9.757812 31.0625 11.125 C 30.59375 12.488281 29.671875 13.816406 28.296875 15.109375 C 25.898438 17.347656 23.03125 18.171875 19.6875 17.578125 C 16.351562 16.992188 13.273438 15.195312 10.453125 12.1875 C 8.421875 10.019531 6.941406 8.097656 6.015625 6.421875 C 5.097656 4.753906 4.335938 2.875 3.734375 0.78125 C 4.835938 -0.03125 6.164062 -1.164062 7.71875 -2.625 C 8.75 -3.59375 9.800781 -4.648438 10.875 -5.796875 C 11.832031 -5.617188 12.972656 -4.828125 14.296875 -3.421875 C 12.179688 -0.929688 11.085938 1.472656 11.015625 3.796875 C 10.941406 6.117188 11.828125 8.269531 13.671875 10.25 C 15.109375 11.78125 16.578125 12.65625 18.078125 12.875 C 19.585938 13.101562 20.875 12.722656 21.9375 11.734375 C 22.625 11.085938 23.0625 10.367188 23.25 9.578125 C 23.445312 8.785156 23.382812 7.722656 23.0625 6.390625 C 22.738281 5.066406 22.113281 3.222656 21.1875 0.859375 C 19.988281 -2.179688 19.195312 -4.628906 18.8125 -6.484375 C 18.4375 -8.335938 18.484375 -9.988281 18.953125 -11.4375 C 19.421875 -12.882812 20.421875 -14.320312 21.953125 -15.75 C 23.472656 -17.175781 25.226562 -17.890625 27.21875 -17.890625 C 29.21875 -17.898438 31.1875 -17.421875 33.125 -16.453125 C 35.070312 -15.484375 36.6875 -14.316406 37.96875 -12.953125 C 39.539062 -11.265625 40.769531 -9.625 41.65625 -8.03125 C 42.550781 -6.4375 43.226562 -4.707031 43.6875 -2.84375 C 42.476562 -1.84375 41.550781 -1.039062 40.90625 -0.4375 C 39.6875 0.695312 38.671875 1.785156 37.859375 2.828125 Z M 37.859375 2.828125 "/></g></g></g><g fill="#ffffff" fill-opacity="1"><g transform="translate(300.132758, 107.252514)"><g><path d="M 9.40625 18.609375 C 7.695312 15.492188 6.875 12.394531 6.9375 9.3125 C 7.007812 6.238281 7.925781 3.378906 9.6875 0.734375 C 11.457031 -1.898438 13.96875 -4.109375 17.21875 -5.890625 C 20.28125 -7.566406 23.421875 -8.425781 26.640625 -8.46875 C 29.867188 -8.507812 32.835938 -7.738281 35.546875 -6.15625 C 38.265625 -4.570312 40.441406 -2.289062 42.078125 0.6875 C 44.710938 5.488281 45.300781 10.085938 43.84375 14.484375 C 42.394531 18.878906 39.195312 22.429688 34.25 25.140625 C 31.144531 26.847656 27.992188 27.726562 24.796875 27.78125 C 21.609375 27.832031 18.660156 27.070312 15.953125 25.5 C 13.242188 23.925781 11.0625 21.628906 9.40625 18.609375 Z M 12.984375 17.34375 C 14.441406 20 16.644531 21.410156 19.59375 21.578125 C 22.550781 21.742188 25.90625 20.796875 29.65625 18.734375 C 32.40625 17.222656 34.597656 15.46875 36.234375 13.46875 C 37.878906 11.476562 38.882812 9.457031 39.25 7.40625 C 39.613281 5.351562 39.332031 3.484375 38.40625 1.796875 C 37 -0.773438 34.875 -2.15625 32.03125 -2.34375 C 29.1875 -2.53125 26.003906 -1.660156 22.484375 0.265625 C 17.898438 2.773438 14.78125 5.535156 13.125 8.546875 C 11.476562 11.566406 11.429688 14.5 12.984375 17.34375 Z M 12.984375 17.34375 "/></g></g></g><g fill="#ffffff" fill-opacity="1"><g transform="translate(320.563654, 136.803497)"><g><path d="M 11.734375 65.109375 C 10.992188 65.472656 9.898438 65.75 8.453125 65.9375 C 8.296875 63.582031 8 60.75 7.5625 57.4375 C 7.09375 53.863281 6.613281 50.796875 6.125 48.234375 C 7.625 48.035156 8.75 48.019531 9.5 48.1875 C 9.875 50.238281 10.566406 51.582031 11.578125 52.21875 C 12.585938 52.851562 14.382812 53 16.96875 52.65625 L 28.765625 51.09375 C 32.234375 50.632812 34.597656 49.691406 35.859375 48.265625 C 37.117188 46.835938 37.597656 44.988281 37.296875 42.71875 C 37.097656 41.257812 36.472656 39.941406 35.421875 38.765625 C 34.378906 37.585938 32.816406 36.703125 30.734375 36.109375 C 28.648438 35.515625 26.140625 35.410156 23.203125 35.796875 L 14.890625 36.890625 C 12.304688 37.234375 10.609375 37.851562 9.796875 38.75 C 8.992188 39.65625 8.675781 41.144531 8.84375 43.21875 C 8.101562 43.582031 7.007812 43.859375 5.5625 44.046875 C 5.375 41.390625 5.046875 38.300781 4.578125 34.78125 C 4.140625 31.414062 3.65625 28.347656 3.125 25.578125 C 4.625 25.378906 5.753906 25.363281 6.515625 25.53125 C 6.890625 27.582031 7.582031 28.921875 8.59375 29.546875 C 9.601562 30.179688 11.398438 30.328125 13.984375 29.984375 L 26.171875 28.375 C 29.640625 27.914062 32 26.972656 33.25 25.546875 C 34.507812 24.117188 34.992188 22.265625 34.703125 19.984375 C 34.503906 18.535156 33.878906 17.222656 32.828125 16.046875 C 31.785156 14.867188 30.222656 13.976562 28.140625 13.375 C 26.054688 12.78125 23.546875 12.675781 20.609375 13.0625 L 11.90625 14.21875 C 9.375 14.550781 7.691406 15.171875 6.859375 16.078125 C 6.023438 16.984375 5.691406 18.472656 5.859375 20.546875 C 5.117188 20.910156 4.023438 21.1875 2.578125 21.375 C 2.390625 18.707031 2.0625 15.617188 1.59375 12.109375 C 1.113281 8.429688 0.628906 5.359375 0.140625 2.890625 C 1.640625 2.691406 2.765625 2.675781 3.515625 2.84375 C 3.898438 4.90625 4.597656 6.25 5.609375 6.875 C 6.617188 7.507812 8.414062 7.65625 11 7.3125 L 26.375 5.28125 C 27.71875 5.101562 28.742188 4.820312 29.453125 4.4375 C 30.160156 4.0625 30.65625 3.429688 30.9375 2.546875 C 31.21875 1.671875 31.273438 0.398438 31.109375 -1.265625 C 32.304688 -1.421875 33.289062 -1.316406 34.0625 -0.953125 C 34.351562 0.390625 34.910156 2.109375 35.734375 4.203125 C 36.566406 6.304688 37.332031 7.816406 38.03125 8.734375 C 37.8125 9.921875 36.851562 10.625 35.15625 10.84375 C 33.90625 11.007812 32.234375 11.125 30.140625 11.1875 C 31.671875 11.613281 32.550781 11.914062 32.78125 12.09375 C 34.375 12.882812 35.863281 14.1875 37.25 16 C 38.644531 17.820312 39.507812 19.976562 39.84375 22.46875 C 40.144531 24.789062 39.882812 26.898438 39.0625 28.796875 C 38.238281 30.703125 36.765625 32.1875 34.640625 33.25 C 33.929688 33.550781 33.296875 33.742188 32.734375 33.828125 C 33.765625 34.054688 34.644531 34.394531 35.375 34.84375 C 36.96875 35.675781 38.460938 36.988281 39.859375 38.78125 C 41.253906 40.570312 42.113281 42.707031 42.4375 45.1875 C 42.863281 48.40625 42.203125 51.164062 40.453125 53.46875 C 38.703125 55.78125 35.625 57.222656 31.21875 57.796875 L 17.875 59.5625 C 15.34375 59.894531 13.65625 60.472656 12.8125 61.296875 C 11.96875 62.117188 11.609375 63.390625 11.734375 65.109375 Z M 11.734375 65.109375 "/></g></g></g><g fill="#ffffff" fill-opacity="1"><g transform="translate(327.068778, 199.087993)"><g><path d="M 0.9375 32.8125 C 0.582031 33.175781 0.132812 33.492188 -0.40625 33.765625 C -0.945312 34.035156 -1.425781 34.15625 -1.84375 34.125 C -3.695312 31.863281 -4.863281 29.515625 -5.34375 27.078125 C -5.832031 24.640625 -5.742188 21.972656 -5.078125 19.078125 C -4.273438 15.566406 -2.796875 12.785156 -0.640625 10.734375 C 1.515625 8.679688 4.101562 7.359375 7.125 6.765625 C 10.15625 6.171875 13.375 6.265625 16.78125 7.046875 C 20.082031 7.796875 22.957031 9.132812 25.40625 11.0625 C 27.851562 12.988281 29.632812 15.335938 30.75 18.109375 C 31.863281 20.878906 32.054688 23.84375 31.328125 27 C 30.273438 31.625 28.050781 34.738281 24.65625 36.34375 C 21.269531 37.957031 17.144531 38.394531 12.28125 37.65625 C 11.3125 37.226562 10.53125 36.648438 9.9375 35.921875 C 11.988281 26.960938 13.488281 19.8125 14.4375 14.46875 C 10.46875 13.832031 7.054688 14.082031 4.203125 15.21875 C 1.347656 16.351562 -0.503906 18.78125 -1.359375 22.5 C -1.753906 24.226562 -1.753906 25.992188 -1.359375 27.796875 C -0.972656 29.597656 -0.207031 31.269531 0.9375 32.8125 Z M 27.828125 25.484375 C 28.296875 23.441406 27.828125 21.507812 26.421875 19.6875 C 25.015625 17.875 22.300781 16.398438 18.28125 15.265625 L 14.9375 29.90625 C 18.34375 30.6875 21.21875 30.691406 23.5625 29.921875 C 25.914062 29.148438 27.335938 27.671875 27.828125 25.484375 Z M 27.828125 25.484375 "/></g></g></g><g fill="#ffffff" fill-opacity="1"><g transform="translate(318.937754, 231.798866)"><g/></g></g><g fill="#ffffff" fill-opacity="1"><g transform="translate(318.752039, 243.734141)"><g><path d="M -39.375 53.15625 C -40.132812 52.863281 -41.082031 52.257812 -42.21875 51.34375 C -40.613281 49.625 -38.753906 47.46875 -36.640625 44.875 C -34.359375 42.082031 -32.457031 39.628906 -30.9375 37.515625 C -29.757812 38.460938 -28.972656 39.269531 -28.578125 39.9375 C -29.804688 41.625 -30.304688 43.050781 -30.078125 44.21875 C -29.859375 45.382812 -28.738281 46.789062 -26.71875 48.4375 L -17.5 55.96875 C -14.789062 58.1875 -12.484375 59.257812 -10.578125 59.1875 C -8.671875 59.125 -6.992188 58.207031 -5.546875 56.4375 C -4.617188 55.300781 -4.085938 53.945312 -3.953125 52.375 C -3.816406 50.800781 -4.242188 49.050781 -5.234375 47.125 C -6.222656 45.195312 -7.863281 43.296875 -10.15625 41.421875 L -16.65625 36.109375 C -18.675781 34.460938 -20.285156 33.65625 -21.484375 33.6875 C -22.691406 33.71875 -24 34.503906 -25.40625 36.046875 C -26.175781 35.765625 -27.128906 35.164062 -28.265625 34.25 C -26.460938 32.28125 -24.4375 29.921875 -22.1875 27.171875 C -20.039062 24.535156 -18.140625 22.082031 -16.484375 19.8125 C -15.304688 20.757812 -14.519531 21.566406 -14.125 22.234375 C -15.351562 23.921875 -15.851562 25.34375 -15.625 26.5 C -15.394531 27.664062 -14.269531 29.070312 -12.25 30.71875 L -2.734375 38.5 C -0.0234375 40.707031 2.273438 41.78125 4.171875 41.71875 C 6.078125 41.65625 7.757812 40.734375 9.21875 38.953125 C 10.132812 37.816406 10.660156 36.46875 10.796875 34.90625 C 10.941406 33.34375 10.519531 31.597656 9.53125 29.671875 C 8.539062 27.742188 6.894531 25.84375 4.59375 23.96875 L -2.203125 18.40625 C -4.179688 16.789062 -5.78125 15.988281 -7 16 C -8.226562 16.019531 -9.546875 16.800781 -10.953125 18.34375 C -11.722656 18.050781 -12.675781 17.445312 -13.8125 16.53125 C -12 14.5625 -9.972656 12.207031 -7.734375 9.46875 C -5.378906 6.59375 -3.472656 4.132812 -2.015625 2.09375 C -0.835938 3.039062 -0.0507812 3.847656 0.34375 4.515625 C -0.894531 6.203125 -1.398438 7.628906 -1.171875 8.796875 C -0.941406 9.960938 0.179688 11.367188 2.203125 13.015625 L 14.21875 22.828125 C 15.257812 23.679688 16.164062 24.234375 16.9375 24.484375 C 17.707031 24.742188 18.503906 24.675781 19.328125 24.28125 C 20.160156 23.882812 21.128906 23.050781 22.234375 21.78125 C 23.171875 22.539062 23.773438 23.332031 24.046875 24.15625 C 23.265625 25.289062 22.390625 26.878906 21.421875 28.921875 C 20.460938 30.960938 19.894531 32.546875 19.71875 33.671875 C 18.695312 34.335938 17.523438 34.125 16.203125 33.03125 C 15.222656 32.238281 13.992188 31.097656 12.515625 29.609375 C 13.242188 31.023438 13.625 31.878906 13.65625 32.171875 C 14.164062 33.867188 14.238281 35.847656 13.875 38.109375 C 13.507812 40.367188 12.535156 42.46875 10.953125 44.40625 C 9.460938 46.226562 7.742188 47.488281 5.796875 48.1875 C 3.847656 48.882812 1.75 48.828125 -0.5 48.015625 C -1.195312 47.703125 -1.765625 47.367188 -2.203125 47.015625 C -1.671875 47.929688 -1.304688 48.804688 -1.109375 49.640625 C -0.628906 51.378906 -0.566406 53.367188 -0.921875 55.609375 C -1.273438 57.847656 -2.242188 59.9375 -3.828125 61.875 C -5.867188 64.382812 -8.332031 65.789062 -11.21875 66.09375 C -14.101562 66.40625 -17.265625 65.15625 -20.703125 62.34375 L -31.125 53.828125 C -33.101562 52.210938 -34.675781 51.378906 -35.84375 51.328125 C -37.019531 51.285156 -38.195312 51.894531 -39.375 53.15625 Z M -39.375 53.15625 "/></g></g></g><g fill="#ffffff" fill-opacity="1"><g transform="translate(278.020441, 291.198127)"><g><path d="M -21.125 25.421875 C -21.9375 24.015625 -22.640625 23.019531 -23.234375 22.4375 C -23.835938 21.851562 -24.523438 21.570312 -25.296875 21.59375 C -26.078125 21.625 -27.101562 21.945312 -28.375 22.5625 C -29.132812 21.25 -29.601562 20.128906 -29.78125 19.203125 C -28.707031 18.460938 -27.585938 17.5 -26.421875 16.3125 C -25.265625 15.132812 -24.328125 13.972656 -23.609375 12.828125 C -22.929688 12.742188 -22.28125 12.925781 -21.65625 13.375 C -21.03125 13.832031 -20.363281 14.671875 -19.65625 15.890625 C -19.21875 16.660156 -18.90625 17.265625 -18.71875 17.703125 C -18.925781 16.066406 -18.769531 14.5 -18.25 13 C -17.382812 10.445312 -15.441406 8.296875 -12.421875 6.546875 C -9.609375 4.921875 -7.078125 4.304688 -4.828125 4.703125 C -2.585938 5.097656 -0.816406 6.421875 0.484375 8.671875 C 2.023438 11.347656 2.289062 14.046875 1.28125 16.765625 C 0.269531 19.492188 -1.234375 21.890625 -3.234375 23.953125 C -5.242188 26.015625 -7.578125 28.082031 -10.234375 30.15625 C -8.640625 32.914062 -7.441406 34.769531 -6.640625 35.71875 C -5.847656 36.675781 -4.953125 37.347656 -3.953125 37.734375 C -2.078125 38.472656 -0.28125 38.34375 1.4375 37.34375 C 3.46875 36.164062 4.457031 34.472656 4.40625 32.265625 C 4.363281 30.066406 3.84375 27.984375 2.84375 26.015625 C 3.425781 25.679688 4.101562 25.347656 4.875 25.015625 C 5.65625 24.691406 6.242188 24.503906 6.640625 24.453125 C 6.859375 24.953125 7.28125 25.738281 7.90625 26.8125 C 9.0625 28.800781 10.179688 30.421875 11.265625 31.671875 C 9.992188 33.660156 8.472656 35.523438 6.703125 37.265625 C 4.941406 39.015625 3.203125 40.382812 1.484375 41.375 C -1.578125 43.144531 -4.46875 43.671875 -7.1875 42.953125 C -8.894531 42.484375 -10.46875 41.476562 -11.90625 39.9375 C -13.34375 38.394531 -14.976562 36.039062 -16.8125 32.875 Z M -11.84375 27.359375 C -9.832031 25.835938 -8.210938 24.46875 -6.984375 23.25 C -5.753906 22.039062 -4.90625 20.617188 -4.4375 18.984375 C -3.96875 17.359375 -4.257812 15.640625 -5.3125 13.828125 C -6.21875 12.242188 -7.285156 11.269531 -8.515625 10.90625 C -9.753906 10.539062 -10.960938 10.695312 -12.140625 11.375 C -13.222656 12.007812 -14.078125 12.953125 -14.703125 14.203125 C -15.328125 15.460938 -15.5625 17.007812 -15.40625 18.84375 C -15.25 20.6875 -14.554688 22.671875 -13.328125 24.796875 Z M -11.84375 27.359375 "/></g></g></g><g fill="#ffffff" fill-opacity="1"><g transform="translate(248.783064, 308.917395)"><g><path d="M -20.0625 10.453125 C -23.5 11.359375 -26.273438 11.796875 -28.390625 11.765625 C -30.503906 11.734375 -32.160156 11.226562 -33.359375 10.25 C -34.566406 9.28125 -35.445312 7.757812 -36 5.6875 C -36.613281 3.375 -36.414062 0.816406 -35.40625 -1.984375 C -34.394531 -4.796875 -32.65625 -7.351562 -30.1875 -9.65625 C -27.726562 -11.96875 -24.757812 -13.585938 -21.28125 -14.515625 C -16.738281 -15.722656 -13.175781 -15.75 -10.59375 -14.59375 C -8.019531 -13.4375 -6.285156 -11.171875 -5.390625 -7.796875 C -4.390625 -4.054688 -5.535156 -0.835938 -8.828125 1.859375 C -7.335938 1.941406 -6.210938 2.351562 -5.453125 3.09375 C -4.691406 3.84375 -4.109375 4.976562 -3.703125 6.5 C -2.960938 9.257812 -3.585938 12.289062 -5.578125 15.59375 C -3.785156 16.238281 -2.253906 17.269531 -0.984375 18.6875 C 0.285156 20.113281 1.195312 21.859375 1.75 23.921875 C 2.71875 27.554688 2.328125 30.875 0.578125 33.875 C -1.160156 36.875 -4.195312 38.953125 -8.53125 40.109375 C -10.34375 40.585938 -11.984375 40.785156 -13.453125 40.703125 L -25.875 44 C -26.550781 42.882812 -27.144531 41.363281 -27.65625 39.4375 C -25.1875 39.375 -22.632812 39.128906 -20 38.703125 C -21.457031 37.847656 -22.671875 36.769531 -23.640625 35.46875 C -24.617188 34.164062 -25.269531 32.90625 -25.59375 31.6875 C -26.570312 28.007812 -26.171875 24.648438 -24.390625 21.609375 C -22.609375 18.578125 -19.578125 16.488281 -15.296875 15.34375 C -13.171875 14.78125 -11.140625 14.585938 -9.203125 14.765625 C -8.273438 13.171875 -7.960938 11.816406 -8.265625 10.703125 C -8.515625 9.742188 -8.945312 9.117188 -9.5625 8.828125 C -10.175781 8.535156 -11.234375 8.503906 -12.734375 8.734375 C -14.242188 8.972656 -16.6875 9.546875 -20.0625 10.453125 Z M -8.671875 36.515625 C -6.753906 36.003906 -5.503906 34.816406 -4.921875 32.953125 C -4.335938 31.085938 -4.347656 29.019531 -4.953125 26.75 C -5.785156 23.625 -7.101562 21.398438 -8.90625 20.078125 C -10.71875 18.753906 -12.835938 18.414062 -15.265625 19.0625 C -16.972656 19.507812 -18.15625 20.578125 -18.8125 22.265625 C -19.476562 23.953125 -19.472656 26.082031 -18.796875 28.65625 C -18.054688 31.425781 -16.765625 33.582031 -14.921875 35.125 C -13.078125 36.664062 -10.992188 37.128906 -8.671875 36.515625 Z M -22.046875 -10.015625 C -24.160156 -9.453125 -25.9375 -8.570312 -27.375 -7.375 C -28.8125 -6.1875 -29.789062 -4.84375 -30.3125 -3.34375 C -30.832031 -1.851562 -30.894531 -0.378906 -30.5 1.078125 C -30.132812 2.429688 -29.523438 3.382812 -28.671875 3.9375 C -27.828125 4.5 -26.460938 4.71875 -24.578125 4.59375 C -22.691406 4.476562 -20.035156 3.960938 -16.609375 3.046875 C -15.398438 2.722656 -14.023438 2.414062 -12.484375 2.125 C -11.742188 1.050781 -11.300781 0.0078125 -11.15625 -1 C -11.019531 -2.007812 -11.128906 -3.164062 -11.484375 -4.46875 C -12.179688 -7.101562 -13.359375 -8.882812 -15.015625 -9.8125 C -16.671875 -10.75 -19.015625 -10.816406 -22.046875 -10.015625 Z M -22.046875 -10.015625 "/></g></g></g><g fill="#ffffff" fill-opacity="1"><g transform="translate(213.931742, 317.742151)"><g><path d="M -9.40625 45.90625 C -8.09375 45.84375 -6.972656 46.234375 -6.046875 47.078125 C -5.117188 47.921875 -4.625 48.96875 -4.5625 50.21875 C -4.5 51.570312 -4.898438 52.726562 -5.765625 53.6875 C -6.640625 54.65625 -7.707031 55.164062 -8.96875 55.21875 C -10.375 55.289062 -11.523438 54.898438 -12.421875 54.046875 C -13.328125 53.203125 -13.8125 52.078125 -13.875 50.671875 C -13.9375 49.472656 -13.53125 48.394531 -12.65625 47.4375 C -11.789062 46.476562 -10.707031 45.96875 -9.40625 45.90625 Z M -2.90625 -0.09375 C -2.832031 1.3125 -2.90625 2.4375 -3.125 3.28125 C -5.21875 3.382812 -6.617188 3.9375 -7.328125 4.9375 C -8.035156 5.945312 -8.328125 7.75 -8.203125 10.34375 L -7.453125 25.84375 C -7.390625 27.195312 -7.207031 28.253906 -6.90625 29.015625 C -6.613281 29.785156 -6.039062 30.347656 -5.1875 30.703125 C -4.34375 31.054688 -3.054688 31.191406 -1.328125 31.109375 C -1.273438 32.316406 -1.460938 33.296875 -1.890625 34.046875 C -3.203125 34.109375 -5.039062 34.476562 -7.40625 35.15625 C -9.78125 35.84375 -11.394531 36.519531 -12.25 37.1875 C -13.414062 36.875 -14.039062 35.863281 -14.125 34.15625 L -15.25 10.671875 C -15.375 8.078125 -15.796875 6.3125 -16.515625 5.375 C -17.234375 4.4375 -18.457031 4.007812 -20.1875 4.09375 C -20.488281 3.21875 -20.671875 2.101562 -20.734375 0.75 C -18.015625 0.78125 -15.066406 0.71875 -11.890625 0.5625 C -8.503906 0.40625 -5.507812 0.1875 -2.90625 -0.09375 Z M -2.90625 -0.09375 "/></g></g></g><g fill="#ffffff" fill-opacity="1"><g transform="translate(194.047032, 319.611614)"><g><path d="M -19.09375 -3.5625 C -16.351562 -3.15625 -13.863281 -2.070312 -11.625 -0.3125 C -9.382812 1.445312 -7.691406 3.828125 -6.546875 6.828125 C -5.410156 9.828125 -5.132812 13.257812 -5.71875 17.125 C -6.1875 20.320312 -7.265625 23.242188 -8.953125 25.890625 C -10.648438 28.535156 -12.84375 30.554688 -15.53125 31.953125 C -18.21875 33.347656 -21.238281 33.796875 -24.59375 33.296875 C -29.445312 32.566406 -33.171875 30.828125 -35.765625 28.078125 C -35.054688 25.804688 -34.4375 22.890625 -33.90625 19.328125 C -33.0625 19.035156 -31.84375 19.007812 -30.25 19.25 C -30.382812 22.226562 -29.847656 24.640625 -28.640625 26.484375 C -27.429688 28.328125 -25.695312 29.421875 -23.4375 29.765625 C -20.851562 30.148438 -18.644531 29.25 -16.8125 27.0625 C -14.976562 24.882812 -13.738281 21.601562 -13.09375 17.21875 C -12.695312 14.582031 -12.765625 12.046875 -13.296875 9.609375 C -13.835938 7.179688 -14.832031 5.144531 -16.28125 3.5 C -17.726562 1.863281 -19.613281 0.875 -21.9375 0.53125 C -23.582031 0.289062 -25.195312 0.445312 -26.78125 1 C -28.375 1.5625 -29.84375 2.472656 -31.1875 3.734375 C -31.5625 3.460938 -31.898438 3.109375 -32.203125 2.671875 C -32.515625 2.234375 -32.71875 1.773438 -32.8125 1.296875 C -29.289062 -2.785156 -24.71875 -4.40625 -19.09375 -3.5625 Z M -19.09375 -3.5625 "/></g></g></g></svg>